<svg width="800" height="520" viewBox="0 0 800 520" fill="none" xmlns="http://www.w3.org/2000/svg">
  <rect width="800" height="520" rx="32" fill="#020617"/>
  <rect x="34" y="34" width="732" height="452" rx="26" fill="url(#bg)"/>
  <rect x="76" y="82" width="648" height="56" rx="18" fill="#0F172A"/>
  <rect x="104" y="100" width="178" height="20" rx="10" fill="#22D3EE"/>
  <rect x="76" y="170" width="312" height="258" rx="24" fill="#0F172A"/>
  <rect x="420" y="170" width="304" height="118" rx="24" fill="#111827"/>
  <rect x="420" y="310" width="144" height="118" rx="24" fill="#111827"/>
  <rect x="580" y="310" width="144" height="118" rx="24" fill="#111827"/>
  <circle cx="232" cy="260" r="66" fill="#E2E8F0"/>
  <path d="M158 350C176 308 210 286 232 286C254 286 288 308 306 350V380H158V350Z" fill="#CBD5E1"/>
  <rect x="458" y="204" width="150" height="16" rx="8" fill="#E2E8F0"/>
  <rect x="458" y="234" width="220" height="12" rx="6" fill="#64748B"/>
  <rect x="458" y="340" width="70" height="14" rx="7" fill="#22D3EE"/>
  <rect x="458" y="366" width="76" height="12" rx="6" fill="#64748B"/>
  <rect x="618" y="340" width="70" height="14" rx="7" fill="#3B82F6"/>
  <rect x="618" y="366" width="76" height="12" rx="6" fill="#64748B"/>
  <defs>
    <linearGradient id="bg" x1="34" y1="34" x2="766" y2="486" gradientUnits="userSpaceOnUse">
      <stop stop-color="#0F172A"/>
      <stop offset="1" stop-color="#111827"/>
    </linearGradient>
  </defs>
</svg>
