<svg width="800" height="520" viewBox="0 0 800 520" fill="none" xmlns="http://www.w3.org/2000/svg">
  <rect width="800" height="520" rx="32" fill="#020617"/>
  <rect x="34" y="34" width="732" height="452" rx="26" fill="url(#bg)"/>
  <rect x="76" y="76" width="648" height="76" rx="24" fill="#0F172A"/>
  <rect x="106" y="102" width="148" height="20" rx="10" fill="#22D3EE"/>
  <circle cx="154" cy="266" r="70" fill="#E2E8F0"/>
  <path d="M84 360C102 318 132 294 154 294C176 294 206 318 224 360V394H84V360Z" fill="#CBD5E1"/>
  <rect x="268" y="196" width="410" height="78" rx="24" fill="#111827"/>
  <rect x="292" y="222" width="128" height="16" rx="8" fill="#E2E8F0"/>
  <rect x="292" y="248" width="252" height="12" rx="6" fill="#64748B"/>
  <rect x="268" y="294" width="410" height="100" rx="24" fill="#111827"/>
  <rect x="292" y="322" width="86" height="14" rx="7" fill="#38BDF8"/>
  <rect x="388" y="322" width="86" height="14" rx="7" fill="#60A5FA"/>
  <rect x="484" y="322" width="86" height="14" rx="7" fill="#22D3EE"/>
  <rect x="580" y="322" width="74" height="14" rx="7" fill="#93C5FD"/>
  <rect x="292" y="352" width="336" height="12" rx="6" fill="#64748B"/>
  <defs>
    <linearGradient id="bg" x1="34" y1="34" x2="766" y2="486" gradientUnits="userSpaceOnUse">
      <stop stop-color="#111827"/>
      <stop offset="1" stop-color="#0F172A"/>
    </linearGradient>
  </defs>
</svg>
