<svg width="800" height="520" viewBox="0 0 800 520" fill="none" xmlns="http://www.w3.org/2000/svg">
  <rect width="800" height="520" rx="32" fill="#020617"/>
  <rect x="34" y="34" width="732" height="452" rx="26" fill="#0F172A"/>
  <rect x="78" y="78" width="140" height="364" rx="22" fill="#111827"/>
  <rect x="252" y="78" width="222" height="364" rx="22" fill="#111827"/>
  <rect x="508" y="78" width="214" height="364" rx="22" fill="#111827"/>
  <rect x="104" y="112" width="88" height="14" rx="7" fill="#22D3EE"/>
  <rect x="278" y="112" width="96" height="14" rx="7" fill="#38BDF8"/>
  <rect x="534" y="112" width="92" height="14" rx="7" fill="#60A5FA"/>
  <rect x="96" y="156" width="104" height="82" rx="20" fill="#1E293B"/>
  <rect x="96" y="256" width="104" height="60" rx="20" fill="#1E293B"/>
  <rect x="270" y="156" width="186" height="100" rx="20" fill="url(#panel1)"/>
  <rect x="270" y="278" width="186" height="128" rx="20" fill="#1E293B"/>
  <rect x="526" y="156" width="178" height="74" rx="20" fill="#1E293B"/>
  <rect x="526" y="252" width="178" height="74" rx="20" fill="url(#panel2)"/>
  <rect x="526" y="348" width="178" height="58" rx="20" fill="#1E293B"/>
  <defs>
    <linearGradient id="panel1" x1="270" y1="156" x2="456" y2="256" gradientUnits="userSpaceOnUse">
      <stop stop-color="#22D3EE"/>
      <stop offset="1" stop-color="#0EA5E9"/>
    </linearGradient>
    <linearGradient id="panel2" x1="526" y1="252" x2="704" y2="326" gradientUnits="userSpaceOnUse">
      <stop stop-color="#3B82F6"/>
      <stop offset="1" stop-color="#2563EB"/>
    </linearGradient>
  </defs>
</svg>
